<svg preserveAspectRatio="none" width="100%" height="100%" overflow="visible" style="display: block;" viewBox="0 0 40 40" fill="none" xmlns="http://www.w3.org/2000/svg">
<g id="ChatGPT Image Jun 7, 2026, 03_31_11 PM (4) 1 [Vectorized]">
<path id="Vector" d="M20.4102 8.79492L20.5732 8.82324L20.6367 8.83594L20.6816 8.88281C20.6918 8.89347 20.7375 8.93689 20.7656 8.98633C20.8014 9.04954 20.81 9.11393 20.8105 9.17383L20.8145 11.5059L20.8135 16.0244C20.9802 16.0204 21.1363 16.0155 21.2656 16.0176C21.4491 16.0205 21.6327 16.0357 21.7842 16.1094C21.9531 16.1916 22.0593 16.334 22.1104 16.5293C22.1579 16.7114 22.1595 16.9445 22.1309 17.2334C22.1137 17.4072 22.1213 17.6862 22.126 17.9268C23.2035 18.1265 24.2304 18.5402 25.1436 19.1484H25.1445C26.6677 20.1719 27.7449 21.6237 28.126 23.4619C28.1488 23.5725 28.196 23.7948 28.0693 23.9814L28.0273 24.042L27.9561 24.0635C27.875 24.0871 27.7355 24.0971 27.5977 24.1035C27.449 24.1104 27.2692 24.1139 27.0889 24.1152C26.7313 24.1178 26.3515 24.1122 26.2041 24.1123L23.0801 24.1113C22.9859 24.7467 22.7306 25.2873 22.3252 25.6885C21.8798 26.1289 21.2698 26.3871 20.542 26.4297L20.5332 26.4307C19.0942 26.4521 18.0613 25.4686 17.8672 24.1094L14.7305 24.1133C14.5601 24.1135 14.2014 24.1194 13.8652 24.1182C13.6954 24.1176 13.5264 24.115 13.3818 24.1094C13.2417 24.1039 13.11 24.0951 13.0244 24.0781L12.9639 24.0664L12.9199 24.0225C12.9172 24.0198 12.9135 24.0168 12.9092 24.0127C12.9053 24.009 12.9001 24.0035 12.8945 23.998C12.8832 23.9868 12.8658 23.9693 12.8496 23.9463C12.8116 23.8922 12.7913 23.8274 12.7939 23.7529L12.8066 23.583C12.8496 23.1808 12.9893 22.7313 13.1621 22.3145C13.3609 21.8352 13.6116 21.3796 13.835 21.0615C15.0577 19.3207 16.8183 18.3328 18.8242 17.9248C18.8269 17.6581 18.8323 17.3866 18.8252 17.126L18.8096 16.8174C18.7923 16.593 18.8446 16.404 18.9736 16.2637C19.0974 16.1293 19.267 16.0676 19.4248 16.0381C19.5836 16.0084 19.7559 16.0064 19.9121 16.0107C19.9954 16.0131 20.0677 16.0153 20.1348 16.0186L20.1357 11.3408L20.1299 10.1211C20.1309 9.86453 20.1347 9.60999 20.1426 9.4043C20.1465 9.30159 20.1514 9.20835 20.1582 9.13281C20.1643 9.06435 20.1731 8.9901 20.1904 8.93652L20.2422 8.77637L20.4102 8.79492ZM18.5439 24.1133C18.8596 25.7138 20.677 26.3175 21.8545 25.1992C22.0614 24.9674 22.1842 24.7892 22.2656 24.6006C22.3262 24.4603 22.3668 24.3071 22.3994 24.1123L18.5439 24.1133ZM20.2773 18.4434C20.195 18.4447 20.1139 18.4462 20.0469 18.4492C19.9746 18.4525 19.9319 18.4566 19.9189 18.459L19.9092 18.4609L19.9004 18.4619C16.8734 18.7344 14.2686 20.4397 13.5186 23.4336H27.4258C27.0018 21.7925 26.1198 20.5653 24.6533 19.6328V19.6318C23.4564 18.8801 22.0765 18.4686 20.6631 18.4414L20.2773 18.4434ZM19.5146 16.708C19.5109 16.7347 19.5059 16.7649 19.5029 16.7988C19.4924 16.9194 19.4889 17.0707 19.4883 17.2295C19.4874 17.4394 19.4937 17.6488 19.498 17.8145C20.1871 17.756 20.7374 17.7398 21.4502 17.8174C21.451 17.7993 21.4534 17.7801 21.4541 17.7598C21.4583 17.6317 21.4594 17.4692 21.458 17.3057C21.4566 17.1422 21.4524 16.9792 21.4463 16.8496C21.4437 16.7939 21.4407 16.7451 21.4375 16.7061C21.4313 16.7057 21.4242 16.7053 21.416 16.7051C21.3905 16.7045 21.3686 16.7053 21.332 16.7051C20.7276 16.702 20.1211 16.705 19.5146 16.708Z" fill="var(--fill-0, #262525)" stroke="var(--stroke-0, #262525)" stroke-width="0.412033"/>
<path id="Vector_2" d="M17.5645 25.9188L17.6699 25.9335L17.7363 25.9423L17.7842 25.9892C17.7959 26.0004 17.8015 26.0046 17.8115 26.0136C17.8153 26.017 17.8516 26.047 17.874 26.0956C17.8938 26.1384 17.8953 26.1816 17.8955 26.1864C17.8963 26.1974 17.8975 26.2067 17.8994 26.2226L17.9053 26.2724L17.8877 26.3192C17.8664 26.3768 17.8259 26.4337 17.792 26.4774C17.754 26.5264 17.7068 26.5815 17.6543 26.6386C17.5487 26.7532 17.4137 26.887 17.2773 27.0184C17.0081 27.2778 16.7085 27.5499 16.6035 27.6493L16.5234 27.7245L16.417 27.7001C16.3733 27.6903 16.2915 27.6739 16.2246 27.622C16.1442 27.5593 16.1147 27.4733 16.0996 27.4081L16.0879 27.3544L16.1035 27.3017C16.1229 27.2387 16.1684 27.1788 16.1992 27.1395C16.2366 27.092 16.2841 27.0378 16.3369 26.9813C16.443 26.8678 16.5798 26.7331 16.7188 26.6005C16.9943 26.3375 17.2967 26.0649 17.3955 25.9726L17.4678 25.9052L17.5645 25.9188Z" fill="var(--fill-0, #262525)" stroke="var(--stroke-0, #262525)" stroke-width="0.412033"/>
<path id="Vector_3" d="M23.3047 25.9105C23.3831 25.9186 23.4567 25.9526 23.5156 25.9857C23.5781 26.0209 23.643 26.0666 23.707 26.1166C23.8353 26.2168 23.9758 26.347 24.1104 26.4789C24.2454 26.6113 24.3793 26.7492 24.4932 26.8676C24.6095 26.9885 24.7008 27.0843 24.7588 27.1381C24.8728 27.2437 24.8441 27.389 24.835 27.4301C24.8239 27.4797 24.7964 27.5516 24.7959 27.5531L24.7471 27.7035L24.5889 27.6947C24.5066 27.6899 24.4301 27.6512 24.3779 27.6205C24.3188 27.5857 24.2555 27.539 24.1924 27.4887C24.0659 27.3876 23.9227 27.255 23.7842 27.1205C23.6448 26.9852 23.5059 26.844 23.3896 26.725C23.2708 26.6034 23.1791 26.509 23.1279 26.4613C23.0698 26.407 23.0511 26.3401 23.0459 26.2934C23.0409 26.2477 23.0462 26.2054 23.0518 26.1771C23.0575 26.1477 23.0661 26.1207 23.0723 26.101C23.0804 26.075 23.082 26.0693 23.085 26.059L23.1328 25.893L23.3047 25.9105Z" fill="var(--fill-0, #262525)" stroke="var(--stroke-0, #262525)" stroke-width="0.412033"/>
<path id="Vector_4" d="M20.3984 26.9877C20.4167 26.9884 20.4728 26.9889 20.5146 26.9955C20.5445 27.0002 20.5729 27.0076 20.6006 27.0189L20.6826 27.0639L20.7266 27.0951L20.751 27.1439C20.7769 27.1975 20.7876 27.2667 20.7939 27.3148C20.8016 27.3731 20.8072 27.4436 20.8115 27.5199C20.8202 27.6731 20.8246 27.8621 20.8242 28.0502C20.8238 28.2385 20.819 28.4293 20.8115 28.5863C20.8044 28.7341 20.7937 28.8758 20.7754 28.9496L20.7363 29.1068L20.5742 29.1059C20.5529 29.1058 20.4844 29.1067 20.4199 29.0951C20.3885 29.0894 20.3394 29.078 20.293 29.0502C20.2425 29.0198 20.1753 28.9562 20.167 28.8519L20.1436 28.4857C20.1359 28.3359 20.1295 28.1653 20.127 27.9965C20.1244 27.8282 20.1259 27.6587 20.1348 27.5111C20.1432 27.37 20.1596 27.2268 20.1953 27.1254L20.2461 26.9818L20.3984 26.9877Z" fill="var(--fill-0, #262525)" stroke="var(--stroke-0, #262525)" stroke-width="0.412033"/>
</g>
</svg>
