<svg preserveAspectRatio="none" width="100%" height="100%" overflow="visible" style="display: block;" viewBox="0 0 40 40" fill="none" xmlns="http://www.w3.org/2000/svg">
<g id="ChatGPT Image Jun 8, 2026, 01_07_34 PM (1) 1 [Vectorized]">
<path id="Vector" d="M29.5922 23.9848C29.7193 23.8893 29.7179 23.8542 29.8479 23.8594C30.0392 24.2447 29.8665 28.0484 29.9474 28.8381C29.4195 28.8298 25.0498 28.8535 24.9297 28.775C24.9382 28.6444 25.0319 28.5703 25.1372 28.4699C25.2682 28.5343 25.4059 28.6242 25.5448 28.5988L25.5851 28.5723C25.8953 28.5351 26.7171 28.5364 27.0477 28.5376C27.901 28.5405 28.8305 28.5192 29.6776 28.5655C29.6693 27.3295 29.6707 26.0934 29.6816 24.8574C29.7735 24.5766 29.8046 24.2077 29.5922 23.9848Z" fill="var(--fill-0, #272627)" fill-opacity="0.988235" stroke="var(--stroke-0, #272627)" stroke-width="0.538201"/>
<path id="Vector_2" d="M29.5879 23.9849C29.8002 24.2077 29.7691 24.5767 29.6772 24.8574C29.6749 24.7017 29.6872 24.4552 29.6264 24.3229C29.3743 24.4268 26.0217 27.9773 25.505 28.4416L25.4893 28.5247L25.5807 28.5723L25.5405 28.5988C25.4015 28.6242 25.2638 28.5344 25.1328 28.4699C25.3701 28.1695 26.0447 27.5584 26.3355 27.2484C27.3602 26.1561 28.5757 25.0725 29.5879 23.9849Z" fill="var(--fill-0, #272627)" fill-opacity="0.956863" stroke="var(--stroke-0, #272627)" stroke-width="0.538201"/>
<path id="Vector_3" d="M21.5931 13.1246C21.7662 13.0469 21.7562 13.0198 21.9205 13.0364C22.0031 13.1922 21.9722 15.9383 21.9526 16.3007C22.7934 16.301 23.8303 16.2757 24.6565 16.3052C24.6432 18.1142 24.6397 19.9233 24.6462 21.7323C24.6464 22.4583 24.6782 23.5211 24.6393 24.2186C24.9288 24.235 25.4414 24.1973 25.6263 24.376C25.5336 24.4657 25.3566 24.4803 25.2263 24.482C21.3525 24.5337 17.4762 24.4789 13.602 24.5023C13.5336 24.5027 13.4605 24.4849 13.396 24.4636L13.3398 24.398C13.4329 24.1035 14.0312 24.301 14.3041 24.2068L14.5038 24.2022C14.7554 24.2584 16.016 24.2952 16.2109 24.1503C16.3184 24.1782 16.2947 24.1879 16.3903 24.164C16.5386 24.297 17.7865 24.2397 18.0645 24.2412C17.9927 23.513 18.0352 22.1313 18.0366 21.3601C17.6118 21.3791 16.8335 21.4054 16.4258 21.3461L16.4659 21.1427C16.9055 21.1934 17.8161 21.1675 18.2936 21.1654C18.2946 22.0346 18.3334 23.3774 18.2718 24.2183C19.4126 24.2526 20.5939 24.2353 21.7382 24.233C21.6773 23.8967 21.6923 22.9821 21.6917 22.6106C21.6862 21.6021 21.6911 20.5936 21.7062 19.5853C21.1876 19.5873 17.8875 19.6325 17.6932 19.5022L17.6879 19.4325C17.8428 19.3342 17.8134 19.3665 18.031 19.3769L18.0844 19.4058C18.2252 19.4111 18.2476 19.4143 18.3717 19.3502C18.62 19.3187 19.2368 19.3312 19.5042 19.331L21.7039 19.3368C21.6454 18.4798 21.7491 17.4865 21.6893 16.6372C21.565 16.432 21.3287 16.6986 21.2528 16.3928C21.3481 16.3027 21.5522 16.2972 21.693 16.2788C21.7028 15.5898 21.6425 14.1776 21.7301 13.5371C21.7484 13.5058 21.7825 13.36 21.7941 13.3154C21.7346 13.1609 21.7693 13.2107 21.5931 13.1246ZM21.9297 24.2305C22.7491 24.2353 23.5987 24.2516 24.4152 24.2234C24.3354 23.4817 24.369 21.5952 24.3783 20.7977C24.3931 19.5222 24.3241 17.7845 24.4076 16.5389C23.8374 16.5418 22.5057 16.5816 21.9676 16.5199L21.9656 21.677C21.9654 22.23 21.9997 23.7333 21.9297 24.2305Z" fill="var(--fill-0, #272627)" fill-opacity="0.980392" stroke="var(--stroke-0, #272627)" stroke-width="0.538201"/>
<path id="Vector_4" d="M10.4716 8.02881C11.9311 8.3123 12.0502 9.38185 12.0299 10.6129C13.4093 10.6556 14.9652 10.6153 16.3618 10.6155L24.773 10.6175L27.761 10.6168C28.2556 10.6169 30.0706 10.5678 30.1729 10.8072C30.3944 11.3253 30.2908 15.2356 30.3038 15.9525C30.3314 17.4845 30.2863 18.3088 30.297 19.7856C30.2958 19.9346 30.2621 20.1151 30.2025 20.2519L30.1352 20.294C30.0685 20.2379 30.0589 20.2548 30.0597 20.1745C30.0657 19.5436 30.0598 18.8978 30.0553 18.2681L30.0531 13.3711C30.0534 12.6537 30.0704 11.9001 30.0249 11.183C30.0078 10.9128 29.7836 10.8543 29.5433 10.8514C28.2694 10.8364 26.993 10.8448 25.7183 10.8465L16.942 10.849C15.5287 10.8503 13.4089 10.9087 12.0358 10.8239C12.0318 12.7187 12.1053 27.0451 11.9552 27.3102L11.8809 27.2994C11.755 27.0784 11.7999 26.8895 11.717 26.6894C11.063 25.1122 9.31245 25.1646 8.427 26.458C8.38013 26.3754 8.40475 26.4028 8.30469 26.3599C8.31199 26.2914 8.32004 26.2405 8.33258 26.1728C9.20934 24.8355 10.8553 25.0425 11.7938 26.2187C11.8508 25.2712 11.8117 23.9612 11.8126 22.9774L11.8193 16.8825L11.8292 12.3042C11.8308 11.5797 11.8678 10.3991 11.7949 9.72834C11.758 9.40213 11.6278 9.09352 11.42 8.83935C11.0993 8.4438 10.6383 8.25692 10.1425 8.21013C10.1487 8.09664 10.1291 8.14378 10.1918 8.05997L10.4716 8.02881Z" fill="var(--fill-0, #272627)" fill-opacity="0.988235" stroke="var(--stroke-0, #272627)" stroke-width="0.538201"/>
<path id="Vector_5" d="M8.4277 26.4586C8.29459 26.7699 8.20814 27.0749 8.26961 27.412C8.58064 29.1187 10.1211 28.9341 11.4437 28.9194C11.7321 28.9162 12.004 28.9183 12.2765 28.9178L17.9506 28.9139C18.4099 28.9136 20.9986 28.851 21.2142 29.0183L21.158 29.0867C20.8111 29.2356 19.0544 29.1685 18.5631 29.1687L13.8725 29.1733L11.2873 29.1752C10.2015 29.1756 9.07688 29.3197 8.36193 28.3141C7.90181 27.667 8.01508 26.8507 8.00631 26.1004C7.99829 25.4159 8.00796 24.7295 8.00917 24.0456L8.0304 17.3661L8.03787 12.4105C8.03895 11.4637 7.98459 10.3646 8.11985 9.44097C8.27462 8.38418 9.50454 7.8668 10.4723 8.02941L10.1925 8.06057C10.1298 8.14438 10.1494 8.09724 10.1432 8.21073C7.86219 8.29925 8.26527 10.4991 8.2654 12.1203L8.26585 16.5089L8.26164 22.8561C8.26133 23.2634 8.21033 26.0049 8.33327 26.1734C8.32074 26.2411 8.31268 26.292 8.30538 26.3605C8.40545 26.4034 8.38082 26.376 8.4277 26.4586Z" fill="var(--fill-0, #272627)" fill-opacity="0.968627" stroke="var(--stroke-0, #272627)" stroke-width="0.538201"/>
<path id="Vector_6" d="M31.9618 19.4092C31.9877 22.0554 31.9953 24.7017 31.9847 27.348C31.984 28.333 31.9251 30.0762 31.9989 30.9793C30.5455 31.0134 28.5168 30.9828 27.0603 30.9863C26.2845 30.9882 20.5742 31.0451 20.3555 30.9124C20.3537 30.7624 20.45 30.7012 20.5624 30.6021C20.7088 30.7211 20.6842 30.7434 20.8298 30.7376C21.624 30.7094 22.4189 30.7016 23.2136 30.7143L23.338 30.7185C23.6981 30.721 24.0107 30.7976 24.1638 30.404L24.2334 30.41C24.2504 30.5625 24.2272 30.6323 24.3172 30.714C24.4455 30.7185 24.9117 30.7378 25.0151 30.7034L25.1878 30.7207C25.3546 30.7203 25.7485 30.734 25.8882 30.6793C25.9107 30.5367 25.9168 30.4475 25.9838 30.3188L26.0532 30.3212C26.0971 30.4588 26.084 30.6609 26.1373 30.6907C26.2149 30.7339 26.7364 30.7249 26.8069 30.7065L26.975 30.7158C27.3977 30.7288 27.7209 30.8445 27.818 30.365L27.9045 30.3361L27.9612 30.3903L27.9522 30.6528C28.0881 30.7387 28.5516 30.7148 28.7438 30.7153L28.8744 30.718C29.0135 30.7157 29.1526 30.7152 29.2917 30.7164C29.8688 30.7203 29.5084 30.5772 29.7738 30.3154C29.9251 30.433 29.7767 30.5307 29.9071 30.7071C30.1498 30.7119 30.3232 30.7228 30.5642 30.7458C30.5658 30.5062 30.5471 30.2488 30.6449 30.0345L30.7009 30.0478C30.7795 30.2598 30.7518 30.5239 30.7449 30.7546C31.1175 30.6906 31.3589 30.7091 31.7286 30.7349C31.6812 30.2143 31.7121 29.299 31.7128 28.7332L31.7168 25.0032L31.7144 21.8485C31.7129 21.3021 31.6862 20.4096 31.7507 19.8928L31.7944 19.8168C31.774 19.6965 31.7724 19.6741 31.7849 19.5529L31.9618 19.4092Z" fill="var(--fill-0, #272627)" stroke="var(--stroke-0, #272627)" stroke-width="0.538201"/>
<path id="Vector_7" d="M18.0411 17.9124C18.0397 17.5098 18.0783 15.698 18.0335 15.4274C17.8992 15.3442 17.8908 15.4524 17.6679 15.4192L17.6465 15.3264C17.7229 15.1184 21.1446 13.3639 21.6014 13.1245C21.7776 13.2106 21.7429 13.1608 21.8025 13.3153C21.7908 13.3599 21.7568 13.5057 21.7384 13.537L21.6796 13.4096C21.4576 13.3895 18.7399 14.9233 18.3153 15.1611C18.2998 15.5943 18.2288 19.2143 18.3591 19.3362C18.3652 19.3419 18.373 19.3455 18.38 19.3501C18.2559 19.4142 18.2336 19.411 18.0927 19.4056L18.0393 19.3768C18.0649 19.0897 18.0465 18.4045 18.0297 18.0986C17.74 18.2679 17.3416 18.4371 17.024 18.5551C16.1933 18.8636 15.3688 19.2435 14.5425 19.5543L14.5445 22.5767C14.5447 22.9319 14.563 23.9004 14.5121 24.2021L14.3125 24.2066C14.2918 24.0684 14.2872 23.8945 14.288 23.7531C14.2959 22.2993 14.2576 20.8339 14.2918 19.3812L16.7019 18.4173C17.0699 18.2695 17.6904 18.0005 18.0411 17.9124Z" fill="var(--fill-0, #272627)" fill-opacity="0.968627" stroke="var(--stroke-0, #272627)" stroke-width="0.538201"/>
<path id="Vector_8" d="M20.5625 30.6023C20.8041 30.3193 21.3665 29.7901 21.644 29.5096L24.1172 27.0258L29.5839 21.535C30.2012 20.9141 31.0838 19.9748 31.766 19.3878C31.8204 19.3409 31.8979 19.3855 31.9619 19.4093L31.785 19.553C31.7725 19.6742 31.7741 19.6966 31.7946 19.8169L31.7508 19.893L31.6846 19.8362C31.5177 19.9068 29.5172 21.9695 29.2576 22.2305L23.2631 28.251C22.9242 28.59 20.9684 30.5142 20.8299 30.7378C20.6843 30.7436 20.7089 30.7213 20.5625 30.6023Z" fill="var(--fill-0, #272627)" fill-opacity="0.952941" stroke="var(--stroke-0, #272627)" stroke-width="0.538201"/>
<path id="Vector_9" d="M26.337 13.2461L26.3903 13.2595C26.5021 13.593 26.4788 22.3257 26.4107 22.9573L26.3616 22.9801C26.2225 22.6962 26.2822 21.602 26.2825 21.2424L26.2824 18.0536L26.2801 15.0905C26.2799 14.697 26.2481 13.5663 26.337 13.2461Z" fill="var(--fill-0, #272627)" fill-opacity="0.968627" stroke="var(--stroke-0, #272627)" stroke-width="0.538201"/>
<path id="Vector_10" d="M16.2163 24.1507C16.1732 23.8969 16.1754 21.5756 16.2071 21.2738C16.3015 21.147 16.2778 21.1847 16.4713 21.1431L16.4312 21.3465C16.4101 21.8854 16.4568 23.8034 16.3956 24.1644C16.3001 24.1882 16.3238 24.1786 16.2163 24.1507Z" fill="var(--fill-0, #272627)" stroke="var(--stroke-0, #272627)" stroke-width="0.538201"/>
<path id="Vector_11" d="M20.3838 26.1907C20.7737 26.1739 22.9087 26.1135 23.0922 26.2557L23.0794 26.3548C22.6505 26.3705 20.591 26.4382 20.3672 26.2732L20.3838 26.1907Z" fill="var(--fill-0, #272627)" stroke="var(--stroke-0, #272627)" stroke-width="0.538201"/>
<path id="Vector_12" d="M13.3711 26.1891C13.6858 26.1664 15.1879 26.1426 15.4013 26.2401L15.4176 26.3267C15.1559 26.3828 13.5718 26.4254 13.3907 26.3051L13.3711 26.1891Z" fill="var(--fill-0, #272627)" stroke="var(--stroke-0, #272627)" stroke-width="0.538201"/>
<path id="Vector_13" d="M16.9058 26.1934C17.2314 26.1782 18.6906 26.1082 18.8674 26.2718L18.8262 26.3589L18.7921 26.3604C18.4476 26.3745 17.0429 26.4337 16.8516 26.2571L16.9058 26.1934Z" fill="var(--fill-0, #272627)" stroke="var(--stroke-0, #272627)" stroke-width="0.538201"/>
<path id="Vector_14" d="M26.3336 13.2461C26.1611 13.2363 25.954 13.2492 25.8281 13.1465C25.9853 12.8864 26.5825 12.9914 26.8234 13.0784L26.8702 13.1421C26.7182 13.2725 26.5599 13.2 26.387 13.2595L26.3336 13.2461Z" fill="var(--fill-0, #272627)" fill-opacity="0.984314" stroke="var(--stroke-0, #272627)" stroke-width="0.538201"/>
<path id="Vector_15" d="M25.8628 23.1799C26.0727 23.1747 26.726 23.1318 26.8745 23.2382L26.8798 23.3485C26.6659 23.3553 26.0087 23.403 25.8477 23.3021L25.8628 23.1799Z" fill="var(--fill-0, #272627)" stroke="var(--stroke-0, #272627)" stroke-width="0.538201"/>
<path id="Vector_16" d="M28.7478 30.7153C28.7285 30.4913 28.6813 30.2187 28.8044 30.0288L28.8644 30.0534C28.9452 30.2476 28.9064 30.5069 28.8784 30.7181L28.7478 30.7153Z" fill="var(--fill-0, #272627)" fill-opacity="0.941176" stroke="var(--stroke-0, #272627)" stroke-width="0.538201"/>
<path id="Vector_17" d="M25.0132 30.7037C25.0137 30.4868 24.9948 30.2391 25.0785 30.0437L25.1326 30.0308C25.2239 30.2171 25.1919 30.5067 25.1859 30.721L25.0132 30.7037Z" fill="var(--fill-0, #272627)" fill-opacity="0.980392" stroke="var(--stroke-0, #272627)" stroke-width="0.538201"/>
<path id="Vector_18" d="M23.2178 30.7146C23.1902 30.5064 23.1277 30.231 23.2668 30.0576C23.4335 30.1599 23.3582 30.5375 23.3422 30.7189L23.2178 30.7146Z" fill="var(--fill-0, #272627)" fill-opacity="0.937255" stroke="var(--stroke-0, #272627)" stroke-width="0.538201"/>
<path id="Vector_19" d="M26.8125 30.706C26.819 30.5075 26.8074 30.236 26.8925 30.0654L26.9414 30.0729C27.0142 30.26 26.9871 30.5093 26.9806 30.7153L26.8125 30.706Z" fill="var(--fill-0, #272627)" fill-opacity="0.976471" stroke="var(--stroke-0, #272627)" stroke-width="0.538201"/>
</g>
</svg>
